<svg xmlns="http://www.w3.org/2000/svg" viewBox="0 0 22 22">
    <defs>
        <style>
            .cls-1{fill:#429cd6}.cls-2{fill:#fff}
        </style>
    </defs>
    <g id="Twitter" transform="translate(-570 -3192)">
        <circle id="Ellipse_228" cx="11" cy="11" r="11" class="cls-1" data-name="Ellipse 228" transform="translate(570 3192)"/>
        <path id="Path_2028" d="M12.166 20.935a7.512 7.512 0 0 0 7.578-7.578v-.37a7.061 7.061 0 0 0 1.356-1.355 6.329 6.329 0 0 1-1.54.431 2.555 2.555 0 0 0 1.171-1.479 5.314 5.314 0 0 1-1.725.678 2.79 2.79 0 0 0-1.972-.863 2.63 2.63 0 0 0-2.649 2.649 2.1 2.1 0 0 0 .062.616 7.57 7.57 0 0 1-5.483-2.772 2.484 2.484 0 0 0-.37 1.355 2.768 2.768 0 0 0 1.171 2.218 2.8 2.8 0 0 1-1.232-.308v.062a2.709 2.709 0 0 0 2.156 2.649 2.62 2.62 0 0 1-.678.123 1.2 1.2 0 0 1-.493-.062 2.724 2.724 0 0 0 2.526 1.848 5.335 5.335 0 0 1-3.328 1.173 1.9 1.9 0 0 1-.616-.062 8.847 8.847 0 0 0 4.066 1.047" class="cls-2" data-name="Path 2028" transform="translate(566.9 3187.6)"/>
    </g>
</svg>
