<svg xmlns="http://www.w3.org/2000/svg" viewBox="0 0 22 22">
    <defs>
        <style>
            .cls-1{fill:#6cc24a}.cls-2{fill:#fff}
        </style>
    </defs>
    <g id="Email" transform="translate(-98.2)">
        <circle id="Ellipse_233" cx="11" cy="11" r="11" class="cls-1" data-name="Ellipse 233" transform="translate(98.2)"/>
        <path id="Email-2" d="M11.762 3.037a.149.149 0 0 1 .238.108v4.908a1.132 1.132 0 0 1-1.11 1.139H1.11A1.091 1.091 0 0 1 0 8.081V3.173a.146.146 0 0 1 .238-.108c.529.407 1.216.949 3.595 2.739A4.117 4.117 0 0 0 6 6.942 4.208 4.208 0 0 0 8.167 5.8c2.379-1.814 3.066-2.329 3.595-2.763zM6 6.155c.555 0 1.322-.705 1.718-1 3.093-2.3 3.33-2.522 4.07-3.091A.585.585 0 0 0 12 1.6v-.461A1.132 1.132 0 0 0 10.89 0H1.11A1.132 1.132 0 0 0 0 1.139V1.6a.585.585 0 0 0 .211.461c.714.569.952.786 4.07 3.091.4.3 1.163 1 1.718 1z" class="cls-2" data-name="Email" transform="translate(103.2 7)"/>
    </g>
</svg>
