<svg xmlns="http://www.w3.org/2000/svg" viewBox="0 0 22.122 22">
    <defs>
        <style>
            .cls-1{fill:#fff}.cls-2{fill:#bd2026}
        </style>
    </defs>
    <g id="Pinterest" transform="translate(-662 -3192)">
        <ellipse id="Ellipse_231" cx="11.006" cy="11" class="cls-1" data-name="Ellipse 231" rx="11.006" ry="11" transform="translate(662 3192)"/>
        <path id="Path_2031" d="M11 0a11.023 11.023 0 0 0-4.033 21.272 9.309 9.309 0 0 1 .061-3.179c.183-.856 1.283-5.44 1.283-5.44A4.349 4.349 0 0 1 8.006 11c0-1.528.917-2.69 2.017-2.69a1.412 1.412 0 0 1 1.406 1.528 22.831 22.831 0 0 1-.917 3.668 1.629 1.629 0 0 0 1.65 2.017c1.956 0 3.483-2.078 3.483-5.012a4.333 4.333 0 0 0-4.583-4.462 4.739 4.739 0 0 0-4.95 4.768 4.523 4.523 0 0 0 .794 2.506c.061.122.122.183.061.306a8.762 8.762 0 0 1-.306 1.223c-.061.183-.183.245-.367.122-1.344-.609-2.261-2.626-2.261-4.274 0-3.484 2.506-6.663 7.272-6.663a6.456 6.456 0 0 1 6.783 6.357c0 3.79-2.383 6.846-5.683 6.846A2.844 2.844 0 0 1 9.9 15.954s-.55 2.078-.672 2.628a12.473 12.473 0 0 1-1.344 2.873 11.546 11.546 0 0 0 3.239.489 11.034 11.034 0 0 0 11-11A11.208 11.208 0 0 0 11 0z" class="cls-2" data-name="Path 2031" transform="translate(662 3192)"/>
    </g>
</svg>
